<svg xmlns="http://www.w3.org/2000/svg" xmlns:xlink="http://www.w3.org/1999/xlink" data-name="Layer 1" width="753.8746948242188" height="703.8282470703125"><rect id="backgroundrect" width="100%" height="100%" x="0" y="0" fill="none" stroke="none"/><g class="currentLayer" style=""><title>Layer 1</title><path d="M355.4123974121094,5.871841164550787 l-23.06843,12.586640000000001 L48.135807412109386,173.52860116455076 L25.06734741210937,186.11523116455078 a48.1793,48.1793 0 0 0 -19.1955,65.29607 L217.51499741210938,639.3048511645508 a48.17922,48.17922 0 0 0 65.296,19.19561 l0.05958000000000001,-0.03251000000000001 L613.0964174121094,478.2895811645508 l0.05958000000000001,-0.03251000000000001 a48.17924,48.17924 0 0 0 19.19553,-65.296 L420.7084074121094,25.06751116455078 A48.17929,48.17929 0 0 0 355.4123974121094,5.871841164550787 z" fill="#f2f2f2" id="svg_1"/><path d="M362.0484974121093,18.033291164550775 l-27.323,14.908 L59.02562741210937,183.36913116455077 L31.703047412109385,198.27691116455077 a34.30947,34.30947 0 0 0 -13.66965,46.4988 L229.6765074121094,632.6692611645508 a34.30947,34.30947 0 0 0 46.4988,13.66952 l0.05958000000000001,-0.03250000000000001 L606.4607474121094,466.12790116455074 l0.06000000000000001,-0.032740000000000005 a34.30935,34.30935 0 0 0 13.66926,-46.49851 L408.5468874121094,31.70313116455077 A34.30936,34.30936 0 0 0 362.0484974121093,18.033291164550775 z" fill="#fff" id="svg_2" class="" stroke="#dadada" stroke-opacity="1"/><path d="M366.60387741210934,138.43560116455077 L243.44234741210937,205.63522116455079 a8.01411,8.01411 0 1 1 -7.6770000000000005,-14.07012 l123.16157,-67.19962 a8.01411,8.01411 0 1 1 7.6770000000000005,14.07012 z" fill="#f2f2f2" id="svg_3" class="" stroke="#dadada" stroke-opacity="1"/><path d="M408.57834741210934,146.34519116455078 L256.39718741210936,229.3785511645508 a8.01411,8.01411 0 0 1 -7.6770000000000005,-14.07012 l152.18119,-83.03336 a8.01411,8.01411 0 1 1 7.6770000000000005,14.07012 z" fill="#f2f2f2" id="svg_4" class="" stroke="#dadada" stroke-opacity="1"/><path d="M192.80957741210938,177.6625011645508 l-113.5479,61.95419 a3.84082,3.84082 0 0 0 -1.53151,5.21006 L126.08170741210938,333.44413116455075 a3.84075,3.84075 0 0 0 5.21,1.5317 l113.5479,-61.95419 a3.84075,3.84075 0 0 0 1.53153,-5.21 l-48.35154,-88.61735 A3.8408100000000003,3.8408100000000003 0 0 0 192.80957741210938,177.6625011645508 z" fill="#f2f2f2" id="svg_5" class="" stroke="#dadada" stroke-opacity="1"/><path d="M427.71364741210937,250.87676116455077 L260.6603474121094,342.02464116455076 a8.01411,8.01411 0 1 1 -7.6770000000000005,-14.07012 l167.05327,-91.14788 a8.01411,8.01411 0 1 1 7.6770000000000005,14.07012 z" fill="#f2f2f2" id="svg_6" class="" stroke="#dadada" stroke-opacity="1"/><path d="M469.6881474121094,258.7863611645508 L273.6152574121094,365.7679711645508 a8.01411,8.01411 0 0 1 -7.6770000000000005,-14.07012 L462.0111874121094,244.7162411645508 a8.01411,8.01411 0 1 1 7.6770000000000005,14.07012 z" fill="#f2f2f2" id="svg_7" class="" stroke="#dadada" stroke-opacity="1"/><circle cx="197.0385284423828" cy="382.6717834472656" r="34" fill="#f2f2f2" id="svg_8" class="" stroke="#dadada" stroke-opacity="1"/><path d="M705.7496874121093,165.7022911645508 H329.4313474121094 a48.17927,48.17927 0 0 0 -48.125,48.12512 V655.7032011645508 a48.17922,48.17922 0 0 0 48.125,48.12506 H705.7496874121093 a48.17922,48.17922 0 0 0 48.125,-48.12506 V213.82741116455077 A48.17927,48.17927 0 0 0 705.7496874121093,165.7022911645508 z" fill="#e6e6e6" id="svg_9" class="" stroke="#dadada" stroke-opacity="1"/><path d="M705.7501774121093,179.5564811645508 H329.4313474121094 a34.30947,34.30947 0 0 0 -34.271,34.27093 V655.7032011645508 A34.30947,34.30947 0 0 0 329.4313474121094,689.9741311645507 H705.7501774121093 a34.30936,34.30936 0 0 0 34.27051,-34.27088 V213.82741116455077 A34.30937,34.30937 0 0 0 705.7501774121093,179.5564811645508 z" fill="#ffffff" id="svg_10" class="" fill-opacity="1" opacity="1" stroke="#b6b6b6" stroke-opacity="1"/><path d="M652.0805374121094,287.4315811645508 H511.77885741210935 a8.01411,8.01411 0 0 1 0,-16.02823 H652.0805374121094 a8.01412,8.01412 0 1 1 0,16.02823 z" fill="#ffceff" id="svg_11" class="" fill-opacity="1"/><path d="M685.1387574121094,314.4792111645508 H511.77885741210935 a8.01411,8.01411 0 1 1 0,-16.02822 h173.3599 a8.01411,8.01411 0 0 1 0,16.02822 z" fill="#f7caf7" id="svg_12" class="" stroke="none" fill-opacity="1"/><path d="M480.72968741210934,238.6248611645508 H351.37958741210934 a3.8408,3.8408 0 0 0 -3.83984,3.84 v100.95 a3.84075,3.84075 0 0 0 3.83984,3.84 h129.3501 a3.84076,3.84076 0 0 0 3.83984,-3.84 v-100.95 A3.8408100000000003,3.8408100000000003 0 0 0 480.72968741210934,238.6248611645508 z" fill="#e6e6e6" id="svg_13"/><path d="M386.86140741210943,300.6152411645508 a34.087,34.087 0 0 1 -8.804,23.076 c-5.656000000000001,6.20712 -14.07618,10.3236 -22.57327,8.62043 c-7.82416,-1.5682900000000002 -14.18219,-8.4067 -13.389,-16.6795 a12.356,12.356 0 0 1 15.2668,-11.09515 c7.43265,1.9288500000000002 10.39415,12.64095 4.20051,17.669 c-1.4862,1.2065000000000001 -3.62136,-0.90359 -2.12132,-2.12132 c4.0944,-3.32385 2.8295,-10.5954 -2.11244,-12.419 c-5.75371,-2.12311 -11.84978,2.44324 -12.26355,8.32554 c-0.49057000000000006,6.97428 4.85221,12.22646 11.40422,13.463 c7.08789,1.3377000000000001 14.11532,-2.29 18.91808,-7.29718 a30.95507,30.95507 0 0 0 8.474,-21.54183 a1.5009000000000001,1.5009000000000001 0 0 1 3,0 z" fill="#2f2e41" id="svg_14"/><circle cx="416.1553039550781" cy="266.16729736328125" r="53.519161224365234" fill="#f9ccf9" id="svg_15" class="" fill-opacity="1"/><path d="M413.4171574121094,289.0032911645508 l-0.05566000000000001,-2 c3.7207,-0.10352000000000001 7.001,-0.3369200000000001 9.46582,-2.1377 a6.14794,6.14794 0 0 0 2.3813400000000002,-4.52832 a3.51432,3.51432 0 0 0 -1.15283,-2.89453 c-1.63623,-1.38184 -4.269,-0.93457 -6.188,-0.054690000000000016 l-1.6547800000000001,0.7587900000000002 l3.17334,-23.19043 l1.98144,0.27149 l-2.6992200000000004,19.72656 c2.60743,-0.7666000000000002 5.02344,-0.4365200000000001 6.67823,0.9609400000000001 a5.471,5.471 0 0 1 1.86035,4.49218 a8.13264,8.13264 0 0 1 -3.2002,6.07325 C420.84000741210934,288.7952811645508 416.72428741210933,288.91051116455077 413.4171574121094,289.0032911645508 z" fill="#2f2e41" id="svg_16"/><rect x="431.1671447753906" y="256.9290771484375" width="10.771479606628418" height="2" fill="#2f2e41" id="svg_17"/><rect x="397.1671447753906" y="256.9290771484375" width="10.771479606628418" height="2" fill="#2f2e41" id="svg_18"/><path d="M386.5094674121094,347.25487116455076 a53.00636,53.00636 0 0 1 12.89014,-5.93 a8.56789,8.56789 0 0 1 0.020000000000000004,-4.71 a9.42609,9.42609 0 0 1 9.12988,-6.63 h13.04 a9.45955,9.45955 0 0 1 9.15039,6.640000000000001 a8.532,8.532 0 0 1 0.019530000000000002,4.7 a53.16732,53.16732 0 0 1 12.89014,5.93 z" fill="#000000" id="svg_19" class="" fill-opacity="1"/><path d="M477.4596674121094,246.30485116455077 a11.57143,11.57143 0 0 0 -3.52979,-2.87 a8.36739,8.36739 0 0 0 -3.8501000000000003,-0.9500000000000001 a8.77158,8.77158 0 0 0 -5.10986,1.7200000000000002 c-4.07031,2.88 -6.890140000000001,9.09 -6.890140000000001,16.28 c0,9.02 4.43995,16.5 10.21,17.80005 a8.25321,8.25321 0 0 0 1.79,0.2 c6.60987,0 12,-8.07 12,-18 C482.07977741210937,254.72490116455077 480.2697274121093,249.5948911645508 477.4596674121094,246.30485116455077 z" fill="#3f3d56" id="svg_20"/><path d="M367.53974741210936,243.7748911645508 h-0.009770000000000004 a8.57836,8.57836 0 0 0 -4.4502,-1.29 a8.36738,8.36738 0 0 0 -3.8500900000000002,0.9500000000000001 a11.57143,11.57143 0 0 0 -3.52979,2.87 l-0.010250000000000002,0.010000000000000002 c-2.79981,3.29 -4.60987,8.42 -4.60987,14.17 c0,7.76 3.27979,14.38 7.8798900000000005,16.91 a8.54175,8.54175 0 0 0 4.12011,1.09 a7.72431,7.72431 0 0 0 0.9600000000000001,-0.06000000000000001 h0.009760000000000003 c6.16016,-0.7400000000000001 11.03027,-8.5 11.03027,-17.94 C375.07977741210937,252.92485116455077 371.9498974121094,246.4348611645508 367.53974741210936,243.7748911645508 z" fill="#484848" id="svg_21" class="" fill-opacity="1"/><path d="M359.7097674121094,275.6741311645508 a1.5012699999999999,1.5012699999999999 0 0 0 1.42151,-1.98 a58.49864,58.49864 0 1 1 112.68726,-6.5747 a1.50006,1.50006 0 0 0 2.93554,0.6191400000000001 A61.50091,61.50091 0 1 0 358.2885074121094,274.65313116455076 A1.5007700000000002,1.5007700000000002 0 0 0 359.7097674121094,275.6741311645508 z" fill="#3f3d56" id="svg_22"/><path d="M443.0405874121094,231.49159116455075 c2.11924,2.89278 1.07447,6.7912099999999995 -1.1583700000000001,9.28528 c-2.90548,3.24541 -7.53877,3.45016 -11.5618,2.8478000000000003 c-4.51431,-0.6759100000000001 -9.3026,-2.7909 -13.87293,-1.3656000000000001 c-3.89537,1.2148 -6.67418,4.74793 -10.7211,5.63537 c-3.589,0.787 -7.88081,-0.25477 -9.139,-4.08016 c-0.6045900000000001,-1.83823 2.29142,-2.6261 2.89284,-0.7975099999999999 c0.8139500000000001,2.47478 4.32865,2.42543 6.34145,1.7401200000000001 c3.22689,-1.09867 5.7137400000000005,-3.77105 8.8854,-5.04749 c3.73933,-1.50491 7.79621,-0.8254900000000001 11.60323,0.03181000000000001 c3.58831,0.808 7.718,2.006 11.29267,0.49665000000000004 c2.64515,-1.1169 4.74985,-4.635 2.84717,-7.23211 c-1.14219,-1.5591 1.45985,-3.05738 2.59042,-1.51416 z" fill="#2f2e41" id="svg_23"/><path d="M651.8693474121094,415.4057011645508 H461.5676874121094 a8.01411,8.01411 0 1 1 0,-16.02823 H651.8693474121094 a8.01412,8.01412 0 0 1 0,16.02823 z" fill="#e6e6e6" id="svg_24"/><path d="M684.9275774121094,442.45333116455083 H461.5676874121094 a8.01412,8.01412 0 1 1 0,-16.02823 H684.9275774121094 a8.01412,8.01412 0 1 1 0,16.02823 z" fill="#dadada" id="svg_25" class="" stroke="#dadada" stroke-opacity="1" fill-opacity="1"/><path d="M651.8693474121094,512.6191311645508 H461.5676874121094 a8.01411,8.01411 0 1 1 0,-16.02822 H651.8693474121094 a8.01411,8.01411 0 1 1 0,16.02822 z" fill="#e6e6e6" id="svg_26"/><path d="M684.9275774121094,539.6668011645507 H461.5676874121094 a8.01411,8.01411 0 1 1 0,-16.02823 H684.9275774121094 a8.01411,8.01411 0 1 1 0,16.02823 z" fill="#dadada" id="svg_27" class="" fill-opacity="1"/><circle cx="386.24969482421875" cy="420.6144714355469" r="34" fill="#dadada" id="svg_28" class="" fill-opacity="1"/><circle cx="386.24969482421875" cy="518.614501953125" r="34" fill="#dadada" id="svg_29" class="" fill-opacity="1"/><path d="M651.8693474121094,610.6191311645508 H461.5676874121094 a8.01411,8.01411 0 1 1 0,-16.02822 H651.8693474121094 a8.01411,8.01411 0 1 1 0,16.02822 z" fill="#e6e6e6" id="svg_30"/><path d="M684.9275774121094,637.6668011645507 H461.5676874121094 a8.01411,8.01411 0 1 1 0,-16.02823 H684.9275774121094 a8.01411,8.01411 0 1 1 0,16.02823 z" fill="#dadada" id="svg_31" class="" fill-opacity="1"/><circle cx="386.24969482421875" cy="616.614501953125" r="34" fill="#dadada" id="svg_32" class="" fill-opacity="1"/></g></svg>